<svg width="22" height="17" viewBox="0 0 22 17" fill="none" xmlns="http://www.w3.org/2000/svg">
<path d="M1.5754 9.21318C1.43921 8.99754 1.37112 8.88972 1.333 8.72342C1.30437 8.5985 1.30437 8.4015 1.333 8.27658C1.37112 8.11028 1.43921 8.00246 1.5754 7.78682C2.7008 6.00484 6.05067 1.5 11.1557 1.5C16.2607 1.5 19.6106 6.00484 20.736 7.78682C20.8721 8.00246 20.9402 8.11028 20.9784 8.27658C21.007 8.4015 21.007 8.5985 20.9784 8.72342C20.9402 8.88972 20.8721 8.99754 20.736 9.21318C19.6106 10.9952 16.2607 15.5 11.1557 15.5C6.05067 15.5 2.7008 10.9952 1.5754 9.21318Z" stroke="#002333" stroke-width="2" stroke-linecap="round" stroke-linejoin="round"/>
<path d="M11.1557 11.5C12.8125 11.5 14.1557 10.1569 14.1557 8.5C14.1557 6.84315 12.8125 5.5 11.1557 5.5C9.49882 5.5 8.15568 6.84315 8.15568 8.5C8.15568 10.1569 9.49882 11.5 11.1557 11.5Z" stroke="#002333" stroke-width="2" stroke-linecap="round" stroke-linejoin="round"/>
</svg>
