<svg width="61" height="61" viewBox="0 0 61 61" fill="none" xmlns="http://www.w3.org/2000/svg">
<path d="M34.8591 20.1028C33.2276 21.2659 31.2312 21.95 29.075 21.95C23.566 21.95 19.1 17.484 19.1 11.975C19.1 6.46596 23.566 2 29.075 2C32.646 2 35.7788 3.87649 37.5409 6.69721M13.4 53.5484H20.8393C21.8093 53.5484 22.7733 53.6638 23.7136 53.8946L31.5741 55.8048C33.2797 56.2203 35.0565 56.2607 36.7799 55.926L45.471 54.2351C47.7668 53.7879 49.8788 52.6885 51.534 51.0784L57.683 45.0969C59.439 43.3916 59.439 40.6244 57.683 38.9162C56.102 37.3783 53.5985 37.2052 51.8098 38.5094L44.6434 43.7378C43.6171 44.4881 42.3683 44.892 41.0839 44.892H34.1637L38.5685 44.8918C41.0513 44.8918 43.0624 42.9355 43.0624 40.5204V39.6461C43.0624 37.6407 41.6594 35.8921 39.6601 35.4073L32.8615 33.754C31.7551 33.4856 30.622 33.35 29.4829 33.35C27.1924 33.35 23.3561 34.9298 22.1387 35.4574C21.7817 35.6121 21.6032 35.6895 21.5748 35.7017C21.5103 35.7293 21.5636 35.7066 21.4989 35.7339C21.4705 35.746 21.4361 35.7604 21.3673 35.7891L13.4 39.1209M53.3 14.825C53.3 20.334 48.834 24.8 43.325 24.8C37.816 24.8 33.35 20.334 33.35 14.825C33.35 9.31596 37.816 4.85 43.325 4.85C48.834 4.85 53.3 9.31596 53.3 14.825ZM2 37.91L2 54.44C2 56.0361 2 56.8342 2.31063 57.4439C2.58387 57.9801 3.01986 58.4161 3.55613 58.6894C4.16577 59 4.96385 59 6.56 59H8.84C10.4361 59 11.2342 59 11.8439 58.6894C12.3801 58.4161 12.8161 57.9801 13.0894 57.4439C13.4 56.8342 13.4 56.0361 13.4 54.44V37.91C13.4 36.3139 13.4 35.5158 13.0894 34.9061C12.8161 34.3699 12.3801 33.9339 11.8439 33.6606C11.2342 33.35 10.4362 33.35 8.84 33.35L6.56 33.35C4.96385 33.35 4.16578 33.35 3.55613 33.6606C3.01987 33.9339 2.58387 34.3699 2.31063 34.9061C2 35.5158 2 36.3138 2 37.91Z" stroke="white" stroke-width="4" stroke-linecap="round" stroke-linejoin="round"/>
</svg>
