<svg width="29" height="29" viewBox="0 0 29 29" fill="none" xmlns="http://www.w3.org/2000/svg">
<path d="M16.5648 9.57501C15.792 10.1259 14.8464 10.45 13.825 10.45C11.2155 10.45 9.1 8.33455 9.1 5.725C9.1 3.11545 11.2155 1 13.825 1C15.5165 1 17.0005 1.88886 17.8352 3.22499M6.4 25.4177H9.92389C10.3833 25.4177 10.84 25.4723 11.2854 25.5817L15.0088 26.4865C15.8167 26.6833 16.6584 26.7024 17.4747 26.5439L21.5915 25.743C22.679 25.5311 23.6794 25.0104 24.4635 24.2477L27.3762 21.4143C28.208 20.6065 28.208 19.2958 27.3762 18.4866C26.6273 17.7581 25.4414 17.6761 24.5941 18.2939L21.1995 20.7706C20.7134 21.1259 20.1218 21.3173 19.5134 21.3173H16.2354L18.3219 21.3172C19.498 21.3172 20.4506 20.3905 20.4506 19.2465V18.8323C20.4506 17.8824 19.786 17.0541 18.839 16.8245L15.6186 16.0414C15.0945 15.9142 14.5578 15.85 14.0182 15.85C13.0403 15.85 11.4675 16.4579 10.7444 16.7609C5.8389 18.8163 3.38615 19.8439 3.38463 19.8446C3.31988 19.8717 3.44534 19.8192 3.38058 19.8463C3.37907 19.8469 14.363 15.2536 9.96944 17.0909L6.4 18.5836M25.3 7.075C25.3 9.68455 23.1845 11.8 20.575 11.8C17.9655 11.8 15.85 9.68455 15.85 7.075C15.85 4.46545 17.9655 2.35 20.575 2.35C23.1845 2.35 25.3 4.46545 25.3 7.075ZM1 18.01L1 25.84C1 26.5961 1 26.9741 1.14714 27.2629C1.27657 27.5169 1.48309 27.7234 1.73711 27.8529C2.02589 28 2.40393 28 3.16 28H4.24C4.99607 28 5.37411 28 5.66289 27.8529C5.91691 27.7234 6.12343 27.5169 6.25286 27.2629C6.4 26.9741 6.4 26.5961 6.4 25.84V18.01C6.4 17.2539 6.4 16.8759 6.25286 16.5871C6.12343 16.3331 5.91691 16.1266 5.66289 15.9971C5.37411 15.85 4.99607 15.85 4.24 15.85L3.16 15.85C2.40393 15.85 2.02589 15.85 1.73711 15.9971C1.48309 16.1266 1.27657 16.3331 1.14714 16.5871C1 16.8759 1 17.2539 1 18.01Z" stroke="#159A9C" stroke-width="2" stroke-linecap="round" stroke-linejoin="round"/>
</svg>
