<svg width="20" height="22" viewBox="0 0 20 22" fill="none" xmlns="http://www.w3.org/2000/svg">
<path d="M7.61518 20C8.32031 20.6224 9.24656 21 10.261 21C11.2755 21 12.2017 20.6224 12.9068 20M16.261 7C16.261 5.4087 15.6289 3.88258 14.5036 2.75736C13.3784 1.63214 11.8523 1 10.261 1C8.66971 1 7.14358 1.63214 6.01836 2.75736C4.89315 3.88258 4.261 5.4087 4.261 7C4.261 10.0902 3.48148 12.206 2.61067 13.6054C1.87613 14.7859 1.50886 15.3761 1.52233 15.5408C1.53724 15.7231 1.57587 15.7926 1.72278 15.9016C1.85546 16 2.4536 16 3.64986 16H16.8721C18.0684 16 18.6665 16 18.7992 15.9016C18.9461 15.7926 18.9848 15.7231 18.9997 15.5408C19.0131 15.3761 18.6459 14.7859 17.9113 13.6054C17.0405 12.206 16.261 10.0902 16.261 7Z" stroke="white" stroke-width="2" stroke-linecap="round" stroke-linejoin="round"/>
</svg>
