<svg width="59" height="57" viewBox="0 0 59 57" fill="none" xmlns="http://www.w3.org/2000/svg">
<path d="M20.05 35.4333C20.05 38.7839 22.8706 41.5 26.35 41.5H32.2C35.9279 41.5 38.95 38.5899 38.95 35C38.95 31.4102 35.9279 28.5 32.2 28.5H26.8C23.0721 28.5 20.05 25.5899 20.05 22C20.05 18.4101 23.0721 15.5 26.8 15.5H32.65C36.1294 15.5 38.95 18.2161 38.95 21.5667M29.5 11.6V15.5M29.5 41.5V45.4M56.5 28.5C56.5 42.8594 44.4117 54.5 29.5 54.5C14.5883 54.5 2.5 42.8594 2.5 28.5C2.5 14.1406 14.5883 2.5 29.5 2.5C44.4117 2.5 56.5 14.1406 56.5 28.5Z" stroke="white" stroke-width="4" stroke-linecap="round" stroke-linejoin="round"/>
</svg>
