<svg width="58" height="66" viewBox="0 0 58 66" fill="none" xmlns="http://www.w3.org/2000/svg">
<path d="M56 64C56 59.193 56 56.7896 55.4187 54.8338C54.1099 50.4304 50.7335 46.9846 46.4189 45.6488C44.5025 45.0555 42.1475 45.0555 37.4375 45.0555H20.5625C15.8525 45.0555 13.4975 45.0555 11.5811 45.6488C7.26654 46.9846 3.89014 50.4304 2.58131 54.8338C2 56.7896 2 59.193 2 64M44.1875 17.5C44.1875 26.0604 37.3878 33 29 33C20.6122 33 13.8125 26.0604 13.8125 17.5C13.8125 8.93959 20.6122 2 29 2C37.3878 2 44.1875 8.93959 44.1875 17.5Z" stroke="white" stroke-width="4" stroke-linecap="round" stroke-linejoin="round"/>
</svg>
