<svg width="28" height="32" viewBox="0 0 28 32" fill="none" xmlns="http://www.w3.org/2000/svg">
<path d="M26 30C26 27.8291 26 26.7437 25.7416 25.8604C25.1599 23.8718 23.6593 22.3156 21.7417 21.7124C20.89 21.4444 19.8433 21.4444 17.75 21.4444H10.25C8.15666 21.4444 7.10998 21.4444 6.25829 21.7124C4.34068 22.3156 2.84006 23.8718 2.25836 25.8604C2 26.7437 2 27.8291 2 30M20.75 9C20.75 12.866 17.7279 16 14 16C10.2721 16 7.25 12.866 7.25 9C7.25 5.13401 10.2721 2 14 2C17.7279 2 20.75 5.13401 20.75 9Z" stroke="#159A9C" stroke-width="3" stroke-linecap="round" stroke-linejoin="round"/>
</svg>
